<?xml version="1.0" encoding="UTF-8" standalone="no"?>
<!-- Created with Inkscape (http://www.inkscape.org/) -->

<svg
   version="1.1"
   id="svg101"
   width="300"
   height="300"
   viewBox="0 0 300 300"
   sodipodi:docname="middle-finger.png"
   inkscape:export-filename="middle-finger.svg"
   inkscape:export-xdpi="96"
   inkscape:export-ydpi="96"
   xmlns:inkscape="http://www.inkscape.org/namespaces/inkscape"
   xmlns:sodipodi="http://sodipodi.sourceforge.net/DTD/sodipodi-0.dtd"
   xmlns="http://www.w3.org/2000/svg"
   xmlns:svg="http://www.w3.org/2000/svg">
  <defs
     id="defs105" />
  <sodipodi:namedview
     id="namedview103"
     pagecolor="#ffffff"
     bordercolor="#000000"
     borderopacity="0.25"
     inkscape:showpageshadow="2"
     inkscape:pageopacity="0.0"
     inkscape:pagecheckerboard="0"
     inkscape:deskcolor="#d1d1d1"
     showgrid="false" />
  <g
     inkscape:groupmode="layer"
     inkscape:label="Image"
     id="g107">
    <path
       style="fill:#f7ce55;fill-opacity:1;stroke-width:0.601269"
       d="m 197.69992,303.73369 h -86.3393 c 0,0 -11.07643,-1.37729 -12.49649,-9.64105 -1.420047,-8.26378 -0.56801,-19.55759 -0.56801,-19.55759 0,0 0.85203,-9.3656 -11.360444,-14.32388 -12.212472,-4.95825 -28.969104,-40.76791 -31.241193,-56.74452 -2.27209,-15.97661 14.768563,-21.21034 16.188619,-21.48581 1.420056,-0.27545 -18.063345,-58.50346 35.420138,-58.9482 C 124.19928,122.89214 94.020276,2.6092546 133.51346,2.3816278 174.87754,2.1432183 145.97443,120.98829 165.68214,121.37988 c 45.68519,0.90776 66.09908,0.82637 64.96304,63.08009 -1.13604,62.25372 -8.52033,65.00832 -10.79242,68.31383 -2.27209,3.30549 -7.38427,5.78462 -7.95231,20.93488 -0.56801,15.15023 1.70407,30.30047 -14.20053,30.02501 z"
       id="path1626"
       sodipodi:nodetypes="ccscsssssssssc" />
  </g>
</svg>
